<svg xmlns="http://www.w3.org/2000/svg" width="60" height="60" viewBox="0 0 60 60">
  <g id="about3" transform="translate(-901 -1561)">
    <g id="baseball-player" transform="translate(900 1560)">
      <path id="Path_67" data-name="Path 67" d="M45.725,13.858l-.961-.24A54.215,54.215,0,0,0,31.62,12h-.205a54.215,54.215,0,0,0-13.144,1.618l-.961.24a14.51,14.51,0,0,0-.261,2.036l3.824,1.912L24,16.913a27.13,27.13,0,0,1,7.445-1.042h.152a27.117,27.117,0,0,1,7.444,1.042l3.125.893L45.986,15.9a14.669,14.669,0,0,0-.261-2.037Z" transform="translate(-0.195 -0.355)" fill="#fff"/>
      <g id="Group_24" data-name="Group 24" transform="translate(11 1)">
        <path id="Path_68" data-name="Path 68" d="M11.968,61h38.71a.968.968,0,0,0,.968-.968V44.966a6.738,6.738,0,0,0-4.782-6.474l-6.72-2.068a13.554,13.554,0,0,0,4.415-7.36h1.28a2.907,2.907,0,0,0,2.9-2.9V22.29a2.9,2.9,0,0,0-1.935-2.725V16.484a15.484,15.484,0,1,0-30.968,0v3.081A2.9,2.9,0,0,0,13.9,22.29v3.871a2.907,2.907,0,0,0,2.9,2.9h1.281a13.552,13.552,0,0,0,4.415,7.36l-6.72,2.068A6.738,6.738,0,0,0,11,44.966V60.032A.968.968,0,0,0,11.968,61Zm.968-6.774h4.839v4.839H12.935Zm31.935,4.839V54.226H49.71v4.839Zm4.839-14.1V52.29H44.871V48.419H42.935V59.065H30.355V52.711L44.274,39.719l2.021.621A4.816,4.816,0,0,1,49.71,44.966ZM30.355,43.581H32.29a6.783,6.783,0,0,0,6.65-5.5l3.2.985-10.818,10.1L20.5,39.063l3.2-.985a6.783,6.783,0,0,0,6.65,5.5Zm-4.5-5.032a13.457,13.457,0,0,0,10.937,0,4.836,4.836,0,0,1-4.5,3.1H30.355A4.836,4.836,0,0,1,25.854,38.548ZM46.806,26.161a.969.969,0,0,1-.968.968h-1q.033-.48.034-.968V21.323h.968a.969.969,0,0,1,.968.968ZM17.969,14.288l.343-.085a53.2,53.2,0,0,1,12.909-1.59h.205A53.249,53.249,0,0,1,44.334,14.2l.343.085c.037.225.077.448.1.675l-2.908,1.455-2.764-.79A28.081,28.081,0,0,0,31.4,14.548h-.152a28.047,28.047,0,0,0-7.71,1.08l-2.763.79-2.908-1.455c.025-.228.066-.451.1-.675ZM31.323,2.935A13.563,13.563,0,0,1,44.16,12.184a55.229,55.229,0,0,0-12.735-1.507H31.22a55.229,55.229,0,0,0-12.735,1.507A13.563,13.563,0,0,1,31.323,2.935ZM16.806,27.129a.969.969,0,0,1-.968-.968V22.29a.969.969,0,0,1,.968-.968h.968v4.839q0,.488.034.968Zm2.9-.968V20.355a.968.968,0,0,0-.968-.968h-.968V17.082l2.471,1.235a.971.971,0,0,0,.7.065l3.125-.893a26.177,26.177,0,0,1,7.178-1H31.4a26.141,26.141,0,0,1,7.178,1.005l3.125.893a1.01,1.01,0,0,0,.267.037.979.979,0,0,0,.433-.1l2.471-1.236v2.305H43.9a.968.968,0,0,0-.968.968v5.806a11.613,11.613,0,0,1-23.226,0ZM16.351,40.341l2.021-.621L29.9,50.484l-1.178,1.1a.967.967,0,0,0-.308.707v6.774H19.71V48.419H17.774V52.29H12.935V44.966a4.816,4.816,0,0,1,3.415-4.626Z" transform="translate(-11 -1)" fill="#fff"/>
        <path id="Path_69" data-name="Path 69" d="M33,57h1.935v1.935H33Z" transform="translate(-11.71 -2.806)" fill="#fff"/>
        <path id="Path_70" data-name="Path 70" d="M33,53h1.935v1.935H33Z" transform="translate(-11.71 -2.677)" fill="#fff"/>
      </g>
    </g>
    <rect id="Rectangle_14" data-name="Rectangle 14" width="60" height="60" transform="translate(901 1561)" fill="none"/>
  </g>
</svg>
