<svg xmlns="http://www.w3.org/2000/svg" width="60" height="60" viewBox="0 0 60 60">
  <g id="about1" transform="translate(-1 -1)">
    <path id="Path_27" data-name="Path 27" d="M55.806,2A5.806,5.806,0,0,0,50,7.806a7.853,7.853,0,0,0,1.889,5.108l3.917,4.57,3.917-4.57a7.853,7.853,0,0,0,1.889-5.108A5.806,5.806,0,0,0,55.806,2Zm0,7.742a1.935,1.935,0,1,1,1.935-1.935A1.935,1.935,0,0,1,55.806,9.742Z" transform="translate(-1.581 -0.032)" fill="#fff"/>
    <path id="Path_28" data-name="Path 28" d="M55.806,46A5.806,5.806,0,0,0,50,51.806a7.853,7.853,0,0,0,1.889,5.108l3.917,4.57,3.917-4.57a7.853,7.853,0,0,0,1.889-5.108A5.806,5.806,0,0,0,55.806,46Zm0,7.742a1.935,1.935,0,1,1,1.935-1.935A1.935,1.935,0,0,1,55.806,53.742Z" transform="translate(-1.581 -1.452)" fill="#fff"/>
    <g id="Group_21" data-name="Group 21" transform="translate(1 1)">
      <path id="Path_29" data-name="Path 29" d="M45.9,47.839H23.645a8.719,8.719,0,0,1-8.71-8.71V23.645a8.719,8.719,0,0,1,8.71-8.71H45.9V13H23.645A10.658,10.658,0,0,0,13,23.645V39.129A10.658,10.658,0,0,0,23.645,49.774H45.9Z" transform="translate(-1.387 -1.387)" fill="#fff"/>
      <path id="Path_30" data-name="Path 30" d="M21.323,61H45.516V59.065H21.323A18.407,18.407,0,0,1,2.935,40.677V21.323A18.407,18.407,0,0,1,21.323,2.935H45.516V1H21.323A20.346,20.346,0,0,0,1,21.323V40.677A20.346,20.346,0,0,0,21.323,61Z" transform="translate(-1 -1)" fill="#fff"/>
      <path id="Path_31" data-name="Path 31" d="M55.774,45A6.783,6.783,0,0,0,49,51.774a8.816,8.816,0,0,0,2.122,5.737l3.917,4.571a.967.967,0,0,0,1.469,0l3.917-4.571a8.812,8.812,0,0,0,2.122-5.736A6.783,6.783,0,0,0,55.774,45Zm3.183,11.252-3.183,3.712-3.183-3.712a6.884,6.884,0,0,1-1.656-4.478,4.839,4.839,0,0,1,9.677,0A6.884,6.884,0,0,1,58.957,56.252Z" transform="translate(-2.548 -2.419)" fill="#fff"/>
      <path id="Path_32" data-name="Path 32" d="M55.9,49a2.9,2.9,0,1,0,2.9,2.9A2.907,2.907,0,0,0,55.9,49Zm0,3.871a.968.968,0,1,1,.968-.968A.968.968,0,0,1,55.9,52.871Z" transform="translate(-2.677 -2.548)" fill="#fff"/>
      <path id="Path_33" data-name="Path 33" d="M55.774,1A6.783,6.783,0,0,0,49,7.774a8.816,8.816,0,0,0,2.122,5.737l3.917,4.571a.967.967,0,0,0,1.469,0l3.917-4.571a8.812,8.812,0,0,0,2.122-5.736A6.783,6.783,0,0,0,55.774,1Zm3.183,11.252-3.183,3.712-3.183-3.712a6.884,6.884,0,0,1-1.656-4.478,4.839,4.839,0,0,1,9.677,0,6.884,6.884,0,0,1-1.656,4.478Z" transform="translate(-2.548 -1)" fill="#fff"/>
      <path id="Path_34" data-name="Path 34" d="M55.9,5a2.9,2.9,0,1,0,2.9,2.9A2.907,2.907,0,0,0,55.9,5Zm0,3.871a.968.968,0,1,1,.968-.968A.968.968,0,0,1,55.9,8.871Z" transform="translate(-2.677 -1.129)" fill="#fff"/>
      <path id="Path_35" data-name="Path 35" d="M45,55h1.935v1.935H45Z" transform="translate(-2.419 -2.742)" fill="#fff"/>
      <path id="Path_36" data-name="Path 36" d="M24.628,8.935V7H22.923a21.327,21.327,0,0,0-2.343.176l.291,1.913a16.6,16.6,0,0,1,2.051-.154Z" transform="translate(-1.632 -1.194)" fill="#fff"/>
      <path id="Path_37" data-name="Path 37" d="M17.131,10.161,16.339,8.4a15.468,15.468,0,0,0-3.529,2.2l1.234,1.491a13.485,13.485,0,0,1,3.087-1.922Z" transform="translate(-1.381 -1.239)" fill="#fff"/>
      <path id="Path_38" data-name="Path 38" d="M28.8,7h3.911V8.935H28.8Z" transform="translate(-1.897 -1.194)" fill="#fff"/>
      <path id="Path_39" data-name="Path 39" d="M28.836,55h3.911v1.935H28.836Z" transform="translate(-1.898 -2.742)" fill="#fff"/>
      <path id="Path_40" data-name="Path 40" d="M20.9,54.845l-.287,1.915a15.831,15.831,0,0,0,2.309.17h1.736V54.995H22.923a13.661,13.661,0,0,1-2.022-.15Z" transform="translate(-1.633 -2.737)" fill="#fff"/>
      <path id="Path_41" data-name="Path 41" d="M12.834,53.305a15.461,15.461,0,0,0,3.535,2.19l.788-1.767a13.575,13.575,0,0,1-3.093-1.915Z" transform="translate(-1.382 -2.639)" fill="#fff"/>
      <path id="Path_42" data-name="Path 42" d="M36.918,55h3.911v1.935H36.918Z" transform="translate(-2.159 -2.742)" fill="#fff"/>
      <path id="Path_43" data-name="Path 43" d="M11.415,14.931,9.83,13.82a15.47,15.47,0,0,0-1.91,3.694l1.824.648a13.56,13.56,0,0,1,1.67-3.231Z" transform="translate(-1.223 -1.414)" fill="#fff"/>
      <path id="Path_44" data-name="Path 44" d="M11.43,48.947a13.425,13.425,0,0,1-1.676-3.226l-1.822.652a15.353,15.353,0,0,0,1.916,3.689Z" transform="translate(-1.224 -2.443)" fill="#fff"/>
      <path id="Path_45" data-name="Path 45" d="M7,22.963v2.859H8.935V22.963q0-.495.035-.981l-1.93-.141Q7,22.4,7,22.963Z" transform="translate(-1.194 -1.672)" fill="#fff"/>
      <path id="Path_46" data-name="Path 46" d="M36.886,7H40.8V8.935H36.886Z" transform="translate(-2.158 -1.194)" fill="#fff"/>
      <path id="Path_47" data-name="Path 47" d="M7,40.906c0,.386.015.772.043,1.153l1.93-.143c-.024-.334-.037-.67-.037-1.009V38.077H7Z" transform="translate(-1.194 -2.196)" fill="#fff"/>
      <path id="Path_48" data-name="Path 48" d="M7,30H8.935v3.911H7Z" transform="translate(-1.194 -1.935)" fill="#fff"/>
      <path id="Path_49" data-name="Path 49" d="M45,7h1.935V8.935H45Z" transform="translate(-2.419 -1.194)" fill="#fff"/>
      <path id="Path_50" data-name="Path 50" d="M22.806,37.548V33.58a4.839,4.839,0,1,0-1.935,0v3.969Zm-3.871-8.71a2.9,2.9,0,1,1,3.871,2.725V29.806H20.871v1.757A2.9,2.9,0,0,1,18.935,28.839Z" transform="translate(-1.516 -1.742)" fill="#fff"/>
      <path id="Path_51" data-name="Path 51" d="M34.806,37.548V33.58a4.839,4.839,0,1,0-1.935,0v3.969Zm-3.871-8.71a2.9,2.9,0,1,1,3.871,2.725V29.806H32.871v1.757A2.9,2.9,0,0,1,30.935,28.839Z" transform="translate(-1.903 -1.742)" fill="#fff"/>
      <path id="Path_52" data-name="Path 52" d="M46.806,33.58a4.839,4.839,0,1,0-1.935,0v3.969h1.935Zm-3.871-4.741a2.9,2.9,0,1,1,3.871,2.725V29.806H44.871v1.757A2.9,2.9,0,0,1,42.935,28.839Z" transform="translate(-2.29 -1.742)" fill="#fff"/>
    </g>
  </g>
</svg>
