<svg xmlns="http://www.w3.org/2000/svg" width="60" height="60" viewBox="0 0 60 60">
  <g id="about2" transform="translate(-1 -1)">
    <path id="Path_53" data-name="Path 53" d="M42.161,43.258,23.774,21,17,27.774,39.258,46.161l-3.871,3.871H46.032V39.387Z" transform="translate(-0.516 -0.645)" fill="#fff"/>
    <g id="Group_22" data-name="Group 22" transform="translate(1 1)">
      <path id="Path_54" data-name="Path 54" d="M1.968,61H60.032a.967.967,0,0,0,.684-1.652L50.071,48.7a.967.967,0,0,0-1.652.684v5.806H6.806V13.581h5.806a.967.967,0,0,0,.684-1.652L2.652,1.284A.967.967,0,0,0,1,1.968V60.032A.967.967,0,0,0,1.968,61ZM2.935,4.3l7.341,7.341H5.839a.967.967,0,0,0-.968.968V56.161a.967.967,0,0,0,.968.968H49.387a.967.967,0,0,0,.968-.968V51.723L57.7,59.065H2.935Z" transform="translate(-1 -1)" fill="#fff"/>
      <path id="Path_55" data-name="Path 55" d="M12.871,44.985V43H10.935v1.935H9.968A.967.967,0,0,0,9,45.9V51.71a.967.967,0,0,0,.968.968h.968v1.935h1.935V52.628a2.418,2.418,0,0,0,1.451-3.822,2.418,2.418,0,0,0-1.451-3.822Zm-.484,5.757H10.935v-.968h1.452a.484.484,0,1,1,0,.968Zm0-2.9H10.935v-.968h1.452a.484.484,0,1,1,0,.968Z" transform="translate(-1.258 -2.355)" fill="#fff"/>
      <path id="Path_56" data-name="Path 56" d="M14.806,19.871V17.935H12.871V16H10.935v1.935H9.968A.967.967,0,0,0,9,18.9v2.9a.967.967,0,0,0,.968.968h2.9v.968H9v1.935h1.935v1.935h1.935V25.677h.968a.967.967,0,0,0,.968-.968v-2.9a.967.967,0,0,0-.968-.968h-2.9v-.968Z" transform="translate(-1.258 -1.484)" fill="#fff"/>
      <path id="Path_57" data-name="Path 57" d="M60.516,1H49.871a.967.967,0,0,0-.684,1.652l3.136,3.136-22.918,19.9-4.918-5.954a.967.967,0,0,0-1.43-.068l-6.774,6.774a.967.967,0,0,0,.068,1.43l5.4,4.462-5.419,4.706a.968.968,0,0,0-.05,1.415L24.024,46.2a.969.969,0,0,0,.685.284h.034a.968.968,0,0,0,.7-.333l5.445-6.27,6.9,5.7L34.671,48.7a.967.967,0,0,0,.684,1.652H46a.967.967,0,0,0,.968-.968V38.742a.967.967,0,0,0-1.652-.684L42.2,41.177l-6.064-7.34L56.694,10.161,59.831,13.3a.968.968,0,0,0,1.653-.684V1.968A.967.967,0,0,0,60.516,1ZM24.659,44.1l-6.273-6.273,4.879-4.238,6.128,5.061Zm17.423-.518a.926.926,0,0,0,.731-.283l2.219-2.219v7.341H37.691L39.91,46.2a.967.967,0,0,0-.068-1.43L18.4,27.06l5.269-5.269,17.71,21.437A.963.963,0,0,0,42.083,43.58Zm17.466-33.3L57.329,8.058a.955.955,0,0,0-.718-.284.968.968,0,0,0-.7.333L34.884,32.324l-4.246-5.141L54.376,6.569a.968.968,0,0,0,.05-1.415L52.207,2.935h7.341Z" transform="translate(-1.484 -1)" fill="#fff"/>
    </g>
  </g>
</svg>
