<svg xmlns="http://www.w3.org/2000/svg" xmlns:xlink="http://www.w3.org/1999/xlink" width="40" height="40" viewBox="0 0 40 40">
  <defs>
    <linearGradient id="linear-gradient" x1="0.5" y1="-0.13" x2="0.5" y2="1.038" gradientUnits="objectBoundingBox">
      <stop offset="0" stop-color="#fcac19"/>
      <stop offset="0.283" stop-color="#fba819"/>
      <stop offset="0.555" stop-color="#f99c1b"/>
      <stop offset="0.822" stop-color="#f6891d"/>
      <stop offset="1" stop-color="#f47820"/>
    </linearGradient>
  </defs>
  <g id="Group_236" data-name="Group 236" transform="translate(-101.84 -90)">
    <rect id="Rectangle_463" data-name="Rectangle 463" width="40" height="40" rx="2" transform="translate(101.84 90)" fill="#273774"/>
    <path id="Path_219" data-name="Path 219" d="M145.226,151.343V171.86a.545.545,0,0,1-.546.545H140.2a.545.545,0,0,1-.546-.545v-.192a.544.544,0,0,0-.917-.4,6.882,6.882,0,0,1-4.96,1.74,6.628,6.628,0,0,1-3.63-1.016,6.838,6.838,0,0,1-2.507-2.917,10.34,10.34,0,0,1-.908-4.495V151.343a.546.546,0,0,1,.546-.546h4.484a.545.545,0,0,1,.545.546v12.852a3.607,3.607,0,0,0,.951,2.7,3.372,3.372,0,0,0,2.463.929,3.816,3.816,0,0,0,2.853-1.1,4.75,4.75,0,0,0,1.08-3.436V151.343a.546.546,0,0,1,.546-.546h4.484A.546.546,0,0,1,145.226,151.343Z" transform="translate(-19.174 -46.837)" fill="#fff"/>
    <rect id="Rectangle_464" data-name="Rectangle 464" width="9.841" height="9.841" rx="4.92" transform="translate(132.728 92.622) rotate(45)" fill="url(#linear-gradient)"/>
  </g>
</svg>
