<svg xmlns="http://www.w3.org/2000/svg" width="24" height="16" viewBox="0 0 24 16">
  <g id="united-kingdom_2_" data-name="united-kingdom (2)" transform="translate(0 -85.33)">
    <rect id="Rectangle_5" data-name="Rectangle 5" width="24" height="16" transform="translate(0 85.33)" fill="#f0f0f0"/>
    <path id="Path_10" data-name="Path 10" d="M13.5,85.33h-3v6.5H0v3H10.5v6.5h3v-6.5H24v-3H13.5Z" fill="#d80027"/>
    <g id="Group_8" data-name="Group 8" transform="translate(14.609 96.113)">
      <path id="Path_11" data-name="Path 11" d="M393.785,315.358l5.541,3.079v-3.079Z" transform="translate(-389.935 -315.358)" fill="#0052b4"/>
      <path id="Path_12" data-name="Path 12" d="M311.652,315.358l9.391,5.217V319.1l-6.736-3.742Z" transform="translate(-311.652 -315.358)" fill="#0052b4"/>
      <path id="Path_13" data-name="Path 13" d="M318.542,348.826,311.652,345v3.828Z" transform="translate(-311.652 -343.609)" fill="#0052b4"/>
    </g>
    <path id="Path_14" data-name="Path 14" d="M311.652,315.358l9.391,5.217V319.1l-6.736-3.742Z" transform="translate(-297.043 -219.245)" fill="#f0f0f0"/>
    <path id="Path_15" data-name="Path 15" d="M311.652,315.358l9.391,5.217V319.1l-6.736-3.742Z" transform="translate(-297.043 -219.245)" fill="#d80027"/>
    <g id="Group_9" data-name="Group 9" transform="translate(0 96.112)">
      <path id="Path_16" data-name="Path 16" d="M4.235,315.356,0,317.709v-2.353Z" transform="translate(0 -315.356)" fill="#0052b4"/>
      <path id="Path_17" data-name="Path 17" d="M33.687,329.51v4.554h-8.2Z" transform="translate(-24.296 -328.847)" fill="#0052b4"/>
    </g>
    <path id="Path_18" data-name="Path 18" d="M6.736,315.358,0,319.1v1.475H0l9.391-5.217Z" transform="translate(0 -219.245)" fill="#d80027"/>
    <g id="Group_10" data-name="Group 10" transform="translate(0 85.33)">
      <path id="Path_19" data-name="Path 19" d="M5.541,134.037,0,130.958v3.079Z" transform="translate(0 -128.819)" fill="#0052b4"/>
      <path id="Path_20" data-name="Path 20" d="M9.391,90.547,0,85.33v1.475l6.736,3.742Z" transform="translate(0 -85.33)" fill="#0052b4"/>
      <path id="Path_21" data-name="Path 21" d="M53.366,85.33l6.89,3.828V85.33Z" transform="translate(-50.864 -85.33)" fill="#0052b4"/>
    </g>
    <path id="Path_22" data-name="Path 22" d="M9.391,90.547,0,85.33v1.475l6.736,3.742Z" fill="#f0f0f0"/>
    <path id="Path_23" data-name="Path 23" d="M9.391,90.547,0,85.33v1.475l6.736,3.742Z" fill="#d80027"/>
    <g id="Group_11" data-name="Group 11" transform="translate(14.609 85.33)">
      <path id="Path_24" data-name="Path 24" d="M421.659,148.8l4.235-2.353V148.8Z" transform="translate(-416.502 -143.581)" fill="#0052b4"/>
      <path id="Path_25" data-name="Path 25" d="M311.652,89.885V85.331h8.2Z" transform="translate(-311.652 -85.331)" fill="#0052b4"/>
    </g>
    <path id="Path_26" data-name="Path 26" d="M314.308,90.547l6.736-3.742V85.33h0l-9.391,5.217Z" transform="translate(-297.043)" fill="#d80027"/>
  </g>
</svg>
