<svg xmlns="http://www.w3.org/2000/svg" xmlns:xlink="http://www.w3.org/1999/xlink" width="202.085" height="34" viewBox="0 0 202.085 34">
  <defs>
    <linearGradient id="linear-gradient" x1="0.5" y1="-0.212" x2="0.5" y2="1.194" gradientUnits="objectBoundingBox">
      <stop offset="0" stop-color="#fcac19"/>
      <stop offset="0.283" stop-color="#fba819"/>
      <stop offset="0.555" stop-color="#f99c1b"/>
      <stop offset="0.822" stop-color="#f6891d"/>
      <stop offset="1" stop-color="#f47820"/>
    </linearGradient>
    <linearGradient id="linear-gradient-2" x1="0.5" y1="-0.57" x2="0.5" y2="1.252" xlink:href="#linear-gradient"/>
    <linearGradient id="linear-gradient-3" x1="0.5" y1="-0.541" x2="0.5" y2="1.216" xlink:href="#linear-gradient"/>
    <linearGradient id="linear-gradient-4" x1="0.5" y1="-0.111" x2="0.5" y2="1.103" xlink:href="#linear-gradient"/>
  </defs>
  <g id="Group_1" data-name="Group 1" transform="translate(-148.597 -623.936)">
    <path id="Path_1" data-name="Path 1" d="M167.341,667.515v20.792a.553.553,0,0,1-.553.553h-4.544a.553.553,0,0,1-.553-.553v-.195a.552.552,0,0,0-.93-.4,6.974,6.974,0,0,1-5.026,1.763,6.716,6.716,0,0,1-3.679-1.029,6.931,6.931,0,0,1-2.54-2.956,10.478,10.478,0,0,1-.92-4.555V667.515a.553.553,0,0,1,.553-.553h4.544a.553.553,0,0,1,.553.553v13.024a3.655,3.655,0,0,0,.963,2.737,3.418,3.418,0,0,0,2.5.942,3.867,3.867,0,0,0,2.89-1.117,4.814,4.814,0,0,0,1.095-3.482v-12.1a.553.553,0,0,1,.553-.553h4.544A.553.553,0,0,1,167.341,667.515Z" transform="translate(0 -31.537)" fill="#fff"/>
    <path id="Path_2" data-name="Path 2" d="M254.848,666.943a9.12,9.12,0,0,1,1.993,6.219v13.462a.553.553,0,0,1-.553.553h-4.544a.553.553,0,0,1-.553-.553V673.6a3.66,3.66,0,0,0-.963-2.737,3.422,3.422,0,0,0-2.5-.942,3.792,3.792,0,0,0-2.869,1.117,4.8,4.8,0,0,0-1.073,3.438v12.148a.553.553,0,0,1-.553.553h-4.544a.553.553,0,0,1-.553-.553V665.832a.553.553,0,0,1,.553-.553h4.544a.553.553,0,0,1,.553.553V666a.551.551,0,0,0,.926.406,7.037,7.037,0,0,1,5.03-1.74A6.476,6.476,0,0,1,254.848,666.943Z" transform="translate(-65.632 -29.854)" fill="#fff"/>
    <path id="Path_3" data-name="Path 3" d="M328.906,673.162a14.508,14.508,0,0,0,3.153.92,28.317,28.317,0,0,1,3.854,1.117,6.373,6.373,0,0,1,2.65,1.949,5.62,5.62,0,0,1,1.117,3.679,5.972,5.972,0,0,1-2.518,5.146,10.54,10.54,0,0,1-6.328,1.817,10.008,10.008,0,0,1-6.35-1.949A6.538,6.538,0,0,1,322,680.79a.551.551,0,0,1,.553-.577h4.437a.556.556,0,0,1,.547.48,2.13,2.13,0,0,0,.841,1.447,4.016,4.016,0,0,0,2.453.657,4.593,4.593,0,0,0,2.365-.5,1.616,1.616,0,0,0,.832-1.467,1.572,1.572,0,0,0-.985-1.489,15.351,15.351,0,0,0-3.175-.963,28.349,28.349,0,0,1-3.854-1.117,6.364,6.364,0,0,1-2.65-1.949,5.616,5.616,0,0,1-1.117-3.679,6.022,6.022,0,0,1,2.474-5.124,9.953,9.953,0,0,1,6.11-1.839,10.108,10.108,0,0,1,4.182.854,7.188,7.188,0,0,1,3.066,2.562,6.979,6.979,0,0,1,1.143,3.578.553.553,0,0,1-.553.582h-4.435a.551.551,0,0,1-.545-.471,2.222,2.222,0,0,0-.777-1.435,3.132,3.132,0,0,0-2.08-.679,3.825,3.825,0,0,0-2.146.526,1.649,1.649,0,0,0-.789,1.445A1.6,1.6,0,0,0,328.906,673.162Z" transform="translate(-127.099 -29.854)" fill="#fff"/>
    <path id="Path_4" data-name="Path 4" d="M406.036,681.943a6.272,6.272,0,0,0,3.788,1.161,5.983,5.983,0,0,0,2.715-.613,4.328,4.328,0,0,0,1.646-1.345.551.551,0,0,1,.446-.234l4.483-.035a.555.555,0,0,1,.518.76,9.061,9.061,0,0,1-3.435,4.336,11.2,11.2,0,0,1-6.416,1.817,12.326,12.326,0,0,1-6.175-1.511,10.447,10.447,0,0,1-4.117-4.16,12.1,12.1,0,0,1-1.445-5.89,11.95,11.95,0,0,1,1.467-5.891,10.638,10.638,0,0,1,4.117-4.16,11.937,11.937,0,0,1,6.022-1.511,10.481,10.481,0,0,1,9.525,5.715,12.471,12.471,0,0,1,1.38,5.847,11.811,11.811,0,0,1-.127,1.851.555.555,0,0,1-.547.47H404.647a.553.553,0,0,0-.525.73A5.341,5.341,0,0,0,406.036,681.943Zm8.151-7.818a.553.553,0,0,0,.529-.716,4.973,4.973,0,0,0-1.738-2.59,5.505,5.505,0,0,0-3.372-1.073,5.95,5.95,0,0,0-3.723,1.139,5.388,5.388,0,0,0-1.788,2.5.554.554,0,0,0,.521.742Z" transform="translate(-182.835 -29.854)" fill="#fff"/>
    <path id="Path_5" data-name="Path 5" d="M500.5,681.943a6.27,6.27,0,0,0,3.788,1.161A5.985,5.985,0,0,0,507,682.49a4.333,4.333,0,0,0,1.646-1.345.551.551,0,0,1,.445-.234l4.483-.035a.555.555,0,0,1,.518.76,9.061,9.061,0,0,1-3.435,4.336,11.2,11.2,0,0,1-6.416,1.817,12.326,12.326,0,0,1-6.175-1.511,10.447,10.447,0,0,1-4.117-4.16,12.1,12.1,0,0,1-1.445-5.89,11.952,11.952,0,0,1,1.467-5.891,10.638,10.638,0,0,1,4.117-4.16,11.937,11.937,0,0,1,6.022-1.511,10.481,10.481,0,0,1,9.525,5.715,12.471,12.471,0,0,1,1.38,5.847,11.843,11.843,0,0,1-.126,1.851.555.555,0,0,1-.547.47H499.111a.553.553,0,0,0-.525.73A5.34,5.34,0,0,0,500.5,681.943Zm8.15-7.818a.553.553,0,0,0,.529-.716,4.973,4.973,0,0,0-1.738-2.59,5.5,5.5,0,0,0-3.372-1.073,5.949,5.949,0,0,0-3.722,1.139,5.388,5.388,0,0,0-1.788,2.5.554.554,0,0,0,.521.742Z" transform="translate(-252.073 -29.854)" fill="#fff"/>
    <path id="Path_6" data-name="Path 6" d="M607.942,666.943a9.12,9.12,0,0,1,1.993,6.219v13.462a.553.553,0,0,1-.553.553h-4.544a.553.553,0,0,1-.553-.553V673.6a3.66,3.66,0,0,0-.964-2.737,3.422,3.422,0,0,0-2.5-.942,3.792,3.792,0,0,0-2.869,1.117,4.8,4.8,0,0,0-1.073,3.438v12.148a.553.553,0,0,1-.553.553h-4.544a.553.553,0,0,1-.553-.553V665.832a.553.553,0,0,1,.553-.553h4.544a.553.553,0,0,1,.553.553V666a.552.552,0,0,0,.926.406,7.037,7.037,0,0,1,5.03-1.74A6.476,6.476,0,0,1,607.942,666.943Z" transform="translate(-324.437 -29.854)" fill="#fff"/>
    <path id="Path_7" data-name="Path 7" d="M684.1,653.159h-2.661a.553.553,0,0,0-.553.553v15.361a.553.553,0,0,1-.553.553h-4.544a.553.553,0,0,1-.553-.553V653.712a.553.553,0,0,0-.553-.553h-2.7a.553.553,0,0,1-.553-.553v-4.325a.553.553,0,0,1,.553-.553h2.7a.553.553,0,0,0,.553-.553v-5.9a.553.553,0,0,1,.553-.553h4.544a.553.553,0,0,1,.553.553v5.9a.553.553,0,0,0,.553.553H684.1a.553.553,0,0,1,.553.553v4.325A.553.553,0,0,1,684.1,653.159Z" transform="translate(-383.218 -12.304)" fill="url(#linear-gradient)"/>
    <path id="Path_8" data-name="Path 8" d="M741.275,666.291a6.872,6.872,0,0,1,3.05-.9.553.553,0,0,1,.585.553v5.142a.554.554,0,0,1-.571.553c-.095,0-.2,0-.3,0a5.332,5.332,0,0,0-3.657,1.292,5.008,5.008,0,0,0-1.467,3.964v10.264a.553.553,0,0,1-.553.553h-4.544a.553.553,0,0,1-.553-.553V666.362a.553.553,0,0,1,.553-.553h4.544a.553.553,0,0,1,.553.553v.746a.554.554,0,0,0,.984.346A5.256,5.256,0,0,1,741.275,666.291Z" transform="translate(-428.536 -30.384)" fill="url(#linear-gradient-2)"/>
    <path id="Path_9" data-name="Path 9" d="M796.891,665.651a7.571,7.571,0,0,1,3.219,2.912,8.794,8.794,0,0,1,1.183,4.686v13.374a.553.553,0,0,1-.553.553h-4.413a.553.553,0,0,1-.553-.553h0a.553.553,0,0,0-.909-.422,8.621,8.621,0,0,1-10.281-.23,6.349,6.349,0,0,1-2.124-5.1,6.285,6.285,0,0,1,2.124-5.08,7.83,7.83,0,0,1,5.233-1.8,9.38,9.38,0,0,1,5.107,1.3.552.552,0,0,0,.849-.465V673.6q0-3.679-3.416-3.679a3.71,3.71,0,0,0-2.453.766,2.454,2.454,0,0,0-.887,1.573.548.548,0,0,1-.544.464h-4.437a.553.553,0,0,1-.554-.583,7.416,7.416,0,0,1,1.188-3.731,7.843,7.843,0,0,1,3.219-2.781,10.879,10.879,0,0,1,9,.022Zm-2.212,17.168a2.333,2.333,0,0,0,.022-3.941,5.239,5.239,0,0,0-2.956-.723,4.242,4.242,0,0,0-2.715.745,2.572,2.572,0,0,0,0,3.942,4.237,4.237,0,0,0,2.715.745A5.026,5.026,0,0,0,794.68,682.819Z" transform="translate(-464.599 -29.854)" fill="url(#linear-gradient-3)"/>
    <rect id="Rectangle_1" data-name="Rectangle 1" width="9.972" height="9.972" rx="2" transform="translate(343.631 623.936) rotate(45)" fill="url(#linear-gradient-4)"/>
  </g>
</svg>
